{
	"asset":{
		"generator":"Khronos glTF Blender I/O v4.2.60",
		"version":"2.0"
	},
	"extensionsUsed":[
		"KHR_materials_emissive_strength"
	],
	"scene":0,
	"scenes":[
		{
			"name":"Scene",
			"nodes":[
				0,
				1
			]
		}
	],
	"nodes":[
		{
			"mesh":0,
			"name":"Text",
			"rotation":[
				0.7063766717910767,
				0,
				0,
				0.7078361511230469
			],
			"scale":[
				0.967174232006073,
				1.7160313129425049,
				0.9671772122383118
			],
			"translation":[
				4.632685661315918,
				2.225060224533081,
				0.06116022169589996
			]
		},
		{
			"mesh":1,
			"name":"Text.003",
			"rotation":[
				0.7071067690849304,
				-7.676416862523183e-05,
				-7.676416134927422e-05,
				0.7071068286895752
			],
			"scale":[
				2.505188226699829,
				2.505188226699829,
				2.505188226699829
			],
			"translation":[
				-1.9956953525543213,
				6.843085289001465,
				-0.026263251900672913
			]
		}
	],
	"materials":[
		{
			"doubleSided":true,
			"emissiveFactor":[
				0.6000000238418579,
				0.6000000238418579,
				0.6000000238418579
			],
			"name":"Material",
			"pbrMetallicRoughness":{
				"baseColorFactor":[
					0.8000074625015259,
					0.019112035632133484,
					0.052980516105890274,
					1
				],
				"metallicFactor":0,
				"roughnessFactor":0.5
			}
		},
		{
			"doubleSided":true,
			"emissiveFactor":[
				1,
				1,
				1
			],
			"extensions":{
				"KHR_materials_emissive_strength":{
					"emissiveStrength":6.09999942779541
				}
			},
			"name":"Material.003",
			"pbrMetallicRoughness":{
				"baseColorFactor":[
					0.800000011920929,
					0.800000011920929,
					0.800000011920929,
					1
				],
				"metallicFactor":0,
				"roughnessFactor":0.5
			}
		}
	],
	"meshes":[
		{
			"name":"Text",
			"primitives":[
				{
					"attributes":{
						"POSITION":0,
						"NORMAL":1,
						"TEXCOORD_0":2
					},
					"indices":3,
					"material":0
				}
			]
		},
		{
			"name":"Text.001",
			"primitives":[
				{
					"attributes":{
						"POSITION":4,
						"NORMAL":5,
						"TEXCOORD_0":6
					},
					"indices":7,
					"material":1
				}
			]
		}
	],
	"accessors":[
		{
			"bufferView":0,
			"componentType":5126,
			"count":23127,
			"max":[
				10.355576515197754,
				0.059999994933605194,
				0.01901710219681263
			],
			"min":[
				-0.015145078301429749,
				-0.059999994933605194,
				-0.7010062336921692
			],
			"type":"VEC3"
		},
		{
			"bufferView":1,
			"componentType":5126,
			"count":23127,
			"type":"VEC3"
		},
		{
			"bufferView":2,
			"componentType":5126,
			"count":23127,
			"type":"VEC2"
		},
		{
			"bufferView":3,
			"componentType":5123,
			"count":116436,
			"type":"SCALAR"
		},
		{
			"bufferView":4,
			"componentType":5126,
			"count":24922,
			"max":[
				6.7255120277404785,
				0.08999999612569809,
				1.1494510173797607
			],
			"min":[
				-6.7235188484191895,
				-0.08999999612569809,
				-0.7010170817375183
			],
			"type":"VEC3"
		},
		{
			"bufferView":5,
			"componentType":5126,
			"count":24922,
			"type":"VEC3"
		},
		{
			"bufferView":6,
			"componentType":5126,
			"count":24922,
			"type":"VEC2"
		},
		{
			"bufferView":7,
			"componentType":5123,
			"count":124572,
			"type":"SCALAR"
		}
	],
	"bufferViews":[
		{
			"buffer":0,
			"byteLength":277524,
			"byteOffset":0,
			"target":34962
		},
		{
			"buffer":0,
			"byteLength":277524,
			"byteOffset":277524,
			"target":34962
		},
		{
			"buffer":0,
			"byteLength":185016,
			"byteOffset":555048,
			"target":34962
		},
		{
			"buffer":0,
			"byteLength":232872,
			"byteOffset":740064,
			"target":34963
		},
		{
			"buffer":0,
			"byteLength":299064,
			"byteOffset":972936,
			"target":34962
		},
		{
			"buffer":0,
			"byteLength":299064,
			"byteOffset":1272000,
			"target":34962
		},
		{
			"buffer":0,
			"byteLength":199376,
			"byteOffset":1571064,
			"target":34962
		},
		{
			"buffer":0,
			"byteLength":249144,
			"byteOffset":1770440,
			"target":34963
		}
	],
	"buffers":[
		{
			"byteLength":2019584,
			"uri":"scene.bin"
		}
	]
}
